<svg width="834" height="471" viewBox="0 0 834 471" fill="none" xmlns="http://www.w3.org/2000/svg">
<g opacity="0.2">
<path d="M356.08 265.061C356.118 265.079 356.155 265.095 356.193 265.114L356.182 265.116L356.08 265.061Z" fill="url(#paint0_linear_1_16333)"/>
<path d="M518.874 352.388L518.82 352.566L356.176 265.116L356.187 265.115C383.081 277.965 432.157 262.077 464.339 244.412C485.421 232.84 504.945 219.378 522.974 204.484C524.102 203.553 525.223 202.615 526.339 201.675C531.163 197.599 535.717 193.212 539.958 188.532C562.055 164.142 634.154 79.4681 646.761 -3.51367e-05L834 73.935C798.432 169.108 732.004 273.847 626.828 331.582C594.727 349.203 545.814 365.064 518.874 352.391L518.874 352.388Z" fill="url(#paint1_linear_1_16333)"/>
<path d="M422.776 191.46C392.49 205.457 364.996 225.429 339.902 247.606C337.864 242.356 336.794 236.042 336.894 228.523C337.435 187.754 375.979 140.3 355.276 102.585C352.891 98.2391 349.458 95.0942 345.307 92.8281L345.323 92.8072L506.163 178.687L508.21 179.943L508.165 180.092C486.779 167.917 445.117 181.133 422.776 191.458L422.776 191.46Z" fill="url(#paint2_linear_1_16333)"/>
<path d="M-0.000386409 377.318C31.2617 325.33 67.8769 275.041 110.435 228.166C151.494 182.942 200.44 131.949 260.286 104.294C281.77 94.3663 321.115 81.7648 343.121 91.6363L506.164 178.693L507.461 179.488L507.323 179.638C485.702 168.267 444.831 181.277 422.78 191.466C392.494 205.462 365 225.434 339.906 247.611C336.765 250.387 333.664 253.195 330.598 256.032C309.751 275.32 290.608 295.862 272.929 315.335C230.371 362.211 193.753 412.5 162.493 464.487L-0.000386409 377.318Z" fill="url(#paint3_linear_1_16333)"/>
<path d="M353.131 263.48C353.13 263.435 353.132 263.523 353.131 263.48C347.257 259.938 342.681 254.764 339.904 247.61C364.998 225.433 392.492 205.458 422.778 191.464C449.291 179.213 503.018 162.885 517.772 189.76C520.388 194.524 522.056 199.445 522.976 204.487C529.34 239.358 499.863 280.08 499.388 315.699C499.127 335.284 506.791 346.708 518.875 352.392L518.822 352.57L353.131 263.483L353.131 263.48Z" fill="url(#paint4_linear_1_16333)"/>
<path d="M507.321 179.635C485.7 168.264 444.828 181.273 422.778 191.462C392.492 205.459 364.998 225.431 339.903 247.608C336.763 250.384 333.661 253.191 330.596 256.028C309.749 275.317 290.606 295.858 272.926 315.331C230.368 362.207 193.75 412.496 162.491 464.484" stroke="url(#paint5_linear_1_16333)" stroke-width="3" stroke-miterlimit="10"/>
<path d="M502.881 177.718C509.289 179.941 514.495 183.781 517.776 189.756C520.392 194.52 522.059 199.441 522.979 204.484C529.344 239.354 499.867 280.076 499.392 315.695C499.131 335.28 506.795 346.704 518.879 352.388L518.825 352.566" stroke="url(#paint6_linear_1_16333)" stroke-width="3" stroke-miterlimit="10"/>
</g>
<path opacity="0.2" d="M406.367 407.441L406.403 407.552L506.95 350.842L506.943 350.842C490.297 359.212 459.424 349.902 439.087 339.268C425.765 332.302 413.393 324.135 401.937 315.054C401.22 314.486 400.508 313.914 399.799 313.341C396.732 310.854 393.831 308.17 391.12 305.299C377.002 290.334 330.872 238.324 321.989 188.816L205.9 237.39C229.331 296.423 272.171 361.045 338.634 395.801C358.92 406.409 389.69 415.704 406.367 407.443L406.367 407.441Z" fill="url(#paint7_linear_1_16333)"/>
<path d="M715.601 417.258C696.541 386.732 674.322 357.267 648.613 329.885C623.809 303.469 594.268 273.709 558.495 257.9C545.653 252.225 522.19 245.141 509.235 251.216L413.39 304.475L412.629 304.96L412.712 305.047C425.424 298.088 449.796 305.398 462.977 311.223C481.081 319.224 497.588 330.797 512.693 343.702C514.584 345.317 516.451 346.952 518.298 348.604C530.855 359.838 542.414 371.832 553.095 383.207C578.805 410.588 601.025 440.054 620.084 470.58L715.601 417.258Z" fill="url(#paint8_linear_1_16333)"/>
<path d="M505.018 353.257C505.018 353.23 505.018 353.282 505.018 353.257C508.467 351.097 511.13 347.983 512.706 343.711C497.601 330.806 481.094 319.232 462.99 311.232C447.142 304.229 415.111 295.078 406.627 311.166C405.122 314.017 404.182 316.953 403.687 319.953C400.258 340.7 418.148 364.562 418.784 385.685C419.133 397.299 414.701 404.152 407.59 407.644L407.623 407.749L505.018 353.258L505.018 353.257Z" fill="url(#paint9_linear_1_16333)"/>
<defs>
<linearGradient id="paint0_linear_1_16333" x1="436.836" y1="168.729" x2="275.454" y2="361.434" gradientUnits="userSpaceOnUse">
<stop offset="0.36" stop-color="#E274F2" stop-opacity="0"/>
<stop offset="0.42" stop-color="#E074F2" stop-opacity="0.02"/>
<stop offset="0.49" stop-color="#DC74F2" stop-opacity="0.07"/>
<stop offset="0.56" stop-color="#D574F3" stop-opacity="0.15"/>
<stop offset="0.63" stop-color="#CB75F3" stop-opacity="0.28"/>
<stop offset="0.7" stop-color="#BF76F5" stop-opacity="0.43"/>
<stop offset="0.77" stop-color="#B077F6" stop-opacity="0.62"/>
<stop offset="0.84" stop-color="#9E79F7" stop-opacity="0.84"/>
<stop offset="0.89" stop-color="#927AF9"/>
</linearGradient>
<linearGradient id="paint1_linear_1_16333" x1="763.858" y1="-6.33757" x2="464.416" y2="351.219" gradientUnits="userSpaceOnUse">
<stop offset="0.36" stop-color="#E274F2" stop-opacity="0"/>
<stop offset="0.42" stop-color="#E074F2" stop-opacity="0.02"/>
<stop offset="0.49" stop-color="#DC74F2" stop-opacity="0.07"/>
<stop offset="0.56" stop-color="#D574F3" stop-opacity="0.15"/>
<stop offset="0.63" stop-color="#CB75F3" stop-opacity="0.28"/>
<stop offset="0.7" stop-color="#BF76F5" stop-opacity="0.43"/>
<stop offset="0.77" stop-color="#B077F6" stop-opacity="0.62"/>
<stop offset="0.84" stop-color="#9E79F7" stop-opacity="0.84"/>
<stop offset="0.89" stop-color="#927AF9"/>
</linearGradient>
<linearGradient id="paint2_linear_1_16333" x1="342.764" y1="299.88" x2="441.444" y2="107.847" gradientUnits="userSpaceOnUse">
<stop offset="0.21" stop-color="#DAD26D"/>
<stop offset="0.22" stop-color="#D8D582"/>
<stop offset="0.24" stop-color="#D7DBA5"/>
<stop offset="0.26" stop-color="#D5DFC1"/>
<stop offset="0.29" stop-color="#D4E3D8"/>
<stop offset="0.31" stop-color="#D3E6E7"/>
<stop offset="0.34" stop-color="#D3E7F1"/>
<stop offset="0.39" stop-color="#D3E8F4"/>
<stop offset="0.46" stop-color="#CCDCF4"/>
<stop offset="0.6" stop-color="#BABFF5"/>
<stop offset="0.78" stop-color="#9C8FF7"/>
<stop offset="0.98" stop-color="#7854FA"/>
</linearGradient>
<linearGradient id="paint3_linear_1_16333" x1="391.579" y1="68.1523" x2="77.6589" y2="545.245" gradientUnits="userSpaceOnUse">
<stop offset="0.04" stop-color="#E862F3"/>
<stop offset="0.07" stop-color="#E37EF3" stop-opacity="0.94"/>
<stop offset="0.14" stop-color="#DCACF3" stop-opacity="0.83"/>
<stop offset="0.21" stop-color="#D7CDF3" stop-opacity="0.76"/>
<stop offset="0.28" stop-color="#D4E1F3" stop-opacity="0.71"/>
<stop offset="0.34" stop-color="#D3E8F4" stop-opacity="0.7"/>
<stop offset="0.39" stop-color="#D3E8F4" stop-opacity="0.63"/>
<stop offset="0.49" stop-color="#D3E8F4" stop-opacity="0.46"/>
<stop offset="0.62" stop-color="#D3E8F4" stop-opacity="0.18"/>
<stop offset="0.71" stop-color="#D3E8F4" stop-opacity="0"/>
</linearGradient>
<linearGradient id="paint4_linear_1_16333" x1="411.339" y1="335.166" x2="510.105" y2="142.97" gradientUnits="userSpaceOnUse">
<stop offset="0.16" stop-color="#DAD26D"/>
<stop offset="0.18" stop-color="#D8D582"/>
<stop offset="0.2" stop-color="#D7DBA5"/>
<stop offset="0.23" stop-color="#D5DFC1"/>
<stop offset="0.26" stop-color="#D4E3D8"/>
<stop offset="0.3" stop-color="#D3E6E7"/>
<stop offset="0.33" stop-color="#D3E7F1"/>
<stop offset="0.39" stop-color="#D3E8F4"/>
<stop offset="0.46" stop-color="#CCDCF4"/>
<stop offset="0.6" stop-color="#BABFF5"/>
<stop offset="0.78" stop-color="#9C8FF7"/>
<stop offset="0.98" stop-color="#7854FA"/>
</linearGradient>
<linearGradient id="paint5_linear_1_16333" x1="305.639" y1="223.868" x2="359.918" y2="405.924" gradientUnits="userSpaceOnUse">
<stop offset="0.11" stop-color="#D3E8F4"/>
<stop offset="0.18" stop-color="#D3E8F4" stop-opacity="0.97"/>
<stop offset="0.29" stop-color="#D3E8F4" stop-opacity="0.89"/>
<stop offset="0.42" stop-color="#D3E8F4" stop-opacity="0.76"/>
<stop offset="0.56" stop-color="#D3E8F4" stop-opacity="0.57"/>
<stop offset="0.72" stop-color="#D3E8F4" stop-opacity="0.34"/>
<stop offset="0.89" stop-color="#D3E8F4" stop-opacity="0.05"/>
<stop offset="0.92" stop-color="#D3E8F4" stop-opacity="0"/>
</linearGradient>
<linearGradient id="paint6_linear_1_16333" x1="486.715" y1="182.192" x2="536.046" y2="347.65" gradientUnits="userSpaceOnUse">
<stop offset="0.11" stop-color="#D3E8F4"/>
<stop offset="0.18" stop-color="#D3E8F4" stop-opacity="0.97"/>
<stop offset="0.29" stop-color="#D3E8F4" stop-opacity="0.89"/>
<stop offset="0.42" stop-color="#D3E8F4" stop-opacity="0.76"/>
<stop offset="0.56" stop-color="#D3E8F4" stop-opacity="0.57"/>
<stop offset="0.72" stop-color="#D3E8F4" stop-opacity="0.34"/>
<stop offset="0.89" stop-color="#D3E8F4" stop-opacity="0.05"/>
<stop offset="0.92" stop-color="#D3E8F4" stop-opacity="0"/>
</linearGradient>
<linearGradient id="paint7_linear_1_16333" x1="248.724" y1="186.334" x2="440.388" y2="406.023" gradientUnits="userSpaceOnUse">
<stop offset="0.36" stop-color="#E274F2" stop-opacity="0"/>
<stop offset="0.42" stop-color="#E074F2" stop-opacity="0.02"/>
<stop offset="0.49" stop-color="#DC74F2" stop-opacity="0.07"/>
<stop offset="0.56" stop-color="#D574F3" stop-opacity="0.15"/>
<stop offset="0.63" stop-color="#CB75F3" stop-opacity="0.28"/>
<stop offset="0.7" stop-color="#BF76F5" stop-opacity="0.43"/>
<stop offset="0.77" stop-color="#B077F6" stop-opacity="0.62"/>
<stop offset="0.84" stop-color="#9E79F7" stop-opacity="0.84"/>
<stop offset="0.89" stop-color="#927AF9"/>
</linearGradient>
<linearGradient id="paint8_linear_1_16333" x1="480.258" y1="237.768" x2="671.207" y2="517.638" gradientUnits="userSpaceOnUse">
<stop offset="0.04" stop-color="#E862F3"/>
<stop offset="0.07" stop-color="#E37EF3" stop-opacity="0.94"/>
<stop offset="0.14" stop-color="#DCACF3" stop-opacity="0.83"/>
<stop offset="0.21" stop-color="#D7CDF3" stop-opacity="0.76"/>
<stop offset="0.28" stop-color="#D4E1F3" stop-opacity="0.71"/>
<stop offset="0.34" stop-color="#D3E8F4" stop-opacity="0.7"/>
<stop offset="0.39" stop-color="#D3E8F4" stop-opacity="0.63"/>
<stop offset="0.49" stop-color="#D3E8F4" stop-opacity="0.46"/>
<stop offset="0.62" stop-color="#D3E8F4" stop-opacity="0.18"/>
<stop offset="0.71" stop-color="#D3E8F4" stop-opacity="0"/>
</linearGradient>
<linearGradient id="paint9_linear_1_16333" x1="471.204" y1="396.357" x2="410.709" y2="283.336" gradientUnits="userSpaceOnUse">
<stop offset="0.16" stop-color="#DAD26D"/>
<stop offset="0.18" stop-color="#D8D582"/>
<stop offset="0.2" stop-color="#D7DBA5"/>
<stop offset="0.23" stop-color="#D5DFC1"/>
<stop offset="0.26" stop-color="#D4E3D8"/>
<stop offset="0.3" stop-color="#D3E6E7"/>
<stop offset="0.33" stop-color="#D3E7F1"/>
<stop offset="0.39" stop-color="#D3E8F4"/>
<stop offset="0.46" stop-color="#CCDCF4"/>
<stop offset="0.6" stop-color="#BABFF5"/>
<stop offset="0.78" stop-color="#9C8FF7"/>
<stop offset="0.98" stop-color="#7854FA"/>
</linearGradient>
</defs>
</svg>
