<svg width="32" height="32" viewBox="0 0 32 32" fill="none" xmlns="http://www.w3.org/2000/svg">
<path d="M0 0V32H32V0H0ZM20.36 22.78L19.08 20.2H13.42L12.34 22.38C12.18 22.71 11.85 22.9 11.51 22.9C11.37 22.9 11.23 22.87 11.1 22.8C10.64 22.57 10.45 22.02 10.68 21.56L14.96 12.92L15.99 15.01L14.33 18.36H18.16L14.95 11.88L9.55 22.79H7.48L14.19 9.23H15.7L22.41 22.79H20.34L20.36 22.78ZM23.98 22.8C23.85 22.87 23.71 22.9 23.57 22.9C23.23 22.9 22.9 22.71 22.74 22.38L16.83 10.44C16.6 9.98 16.79 9.43 17.25 9.2C17.71 8.97 18.26 9.16 18.49 9.62L24.4 21.56C24.63 22.02 24.44 22.57 23.98 22.8Z" fill="white"/>
</svg>
