<svg width="32" height="32" viewBox="0 0 32 32" fill="none" xmlns="http://www.w3.org/2000/svg">
<path d="M0 0V32H32V0H0ZM12.53 22.39H9.9V13.82H12.53V22.39ZM11.29 12.64C10.44 12.64 9.75 11.95 9.75 11.09C9.75 10.23 10.44 9.54 11.29 9.54C12.14 9.54 12.83 10.23 12.83 11.09C12.83 11.95 12.14 12.64 11.29 12.64ZM22.25 22.47H19.62V18.26C19.62 17.3 19.55 15.97 18.23 15.97C16.84 15.97 16.62 17.08 16.62 18.19V22.4H13.99V13.83H16.48V15.01H16.55C16.91 14.27 17.72 13.61 19.04 13.61C21.74 13.61 22.18 15.38 22.26 17.82V22.48L22.25 22.47Z" fill="white"/>
</svg>
