<svg width="32" height="32" viewBox="0 0 32 32" fill="none" xmlns="http://www.w3.org/2000/svg">
<path d="M14.5 18.25L18.4 16L14.5 13.75V18.25Z" fill="white"/>
<path d="M0 0V32H32V0H0ZM23.19 19.61C23.02 20.26 22.51 20.76 21.86 20.94C20.69 21.25 16 21.25 16 21.25C16 21.25 11.31 21.25 10.14 20.94C9.49 20.77 8.99 20.26 8.81 19.61C8.5 18.44 8.5 16 8.5 16C8.5 16 8.5 13.56 8.81 12.39C8.98 11.74 9.49 11.24 10.14 11.06C11.31 10.75 16 10.75 16 10.75C16 10.75 20.69 10.75 21.86 11.06C22.51 11.23 23.01 11.74 23.19 12.39C23.5 13.56 23.5 16 23.5 16C23.5 16 23.5 18.44 23.19 19.61Z" fill="white"/>
</svg>
