<svg width="16" height="16" viewBox="0 0 16 16" fill="none" xmlns="http://www.w3.org/2000/svg">
<g id="icons/file/ic-folder">
<path id="Rectangle-6" d="M13.44 2.79608H1.75996C1.31813 2.79608 0.959961 3.15425 0.959961 3.59608V9.03608C0.959961 9.47791 1.31813 9.83608 1.75996 9.83608H13.44C13.8818 9.83608 14.24 9.47791 14.24 9.03608V3.59608C14.24 3.15425 13.8818 2.79608 13.44 2.79608Z" fill="#F9B552"/>
<g id="Vector">
<path d="M14.24 4.07611H1.76C0.787979 4.07611 0 4.86408 0 5.83611V13.0361C0 14.0081 0.787979 14.7961 1.76 14.7961H14.24C15.212 14.7961 16 14.0081 16 13.0361V5.83611C16 4.86408 15.212 4.07611 14.24 4.07611Z" fill="#FFCF5C"/>
<path d="M6.24 1.19611H1.76C0.787979 1.19611 0 1.98408 0 2.95611V5.51611C0 6.48813 0.787979 7.27611 1.76 7.27611H6.24C7.21202 7.27611 8 6.48813 8 5.51611V2.95611C8 1.98408 7.21202 1.19611 6.24 1.19611Z" fill="#FFCF5C"/>
</g>
</g>
</svg>
