<svg width="20" height="20" viewBox="0 0 20 20" fill="none" xmlns="http://www.w3.org/2000/svg">
<g id="&#236;&#132;&#188;&#236;&#132;&#156;/&#234;&#176;&#129;&#235;&#143;&#132;&#234;&#184;&#176;">
<mask id="mask0_2020_15772" style="mask-type:alpha" maskUnits="userSpaceOnUse" x="0" y="0" width="20" height="20">
<rect id="Bounding box" width="20" height="20" fill="#D9D9D9"/>
</mask>
<g mask="url(#mask0_2020_15772)">
<path id="square_foot" d="M5.06968 17C4.49344 17 4.00444 16.7988 3.60266 16.3963C3.20089 15.9938 3 15.504 3 14.9268V3.91974C3 3.51673 3.17245 3.23826 3.51735 3.08432C3.86225 2.93057 4.16796 2.98708 4.43447 3.25387L6.05406 4.87651L5.20858 5.72344L5.72183 6.23756L6.56731 5.39036L8.90633 7.73338L8.06085 8.58058L8.57382 9.09471L9.41957 8.24751L11.8425 10.6749L10.9971 11.5218L11.5103 12.0359L12.3558 11.189L14.6948 13.532L13.8493 14.379L14.3626 14.8931L15.208 14.0462L16.7645 15.6053C17.0169 15.858 17.0664 16.1536 16.913 16.4922C16.7593 16.8307 16.4883 17 16.1 17H5.06968ZM5.27175 15.3987H13.6768L4.59854 6.30494V14.7244C4.59854 14.921 4.66161 15.0826 4.78776 15.2092C4.91409 15.3355 5.07542 15.3987 5.27175 15.3987Z" fill="#161C24"/>
</g>
</g>
</svg>
