<svg width="20" height="20" viewBox="0 0 20 20" fill="none" xmlns="http://www.w3.org/2000/svg">
<g id="&#236;&#132;&#188;&#236;&#132;&#156;/gps">
<mask id="mask0_2020_15705" style="mask-type:alpha" maskUnits="userSpaceOnUse" x="0" y="0" width="20" height="20">
<rect id="Bounding box" width="20" height="20" fill="#D9D9D9"/>
</mask>
<g mask="url(#mask0_2020_15705)">
<path id="share_location" d="M11.3147 17.3767C11.1929 17.4109 11.0864 17.3882 10.9952 17.3086C10.9038 17.229 10.8581 17.1198 10.8581 16.9809C10.8581 16.8825 10.892 16.7936 10.9599 16.714C11.0277 16.6344 11.1108 16.5829 11.2091 16.5594C11.6952 16.4654 12.1575 16.3284 12.596 16.1484C13.0346 15.9682 13.4388 15.7489 13.8085 15.4905C13.8928 15.4327 13.9865 15.4089 14.0897 15.4192C14.1928 15.4293 14.2817 15.4718 14.3564 15.5465C14.4547 15.6448 14.4988 15.7522 14.4887 15.8686C14.4786 15.9851 14.4211 16.0807 14.3164 16.1555C13.8752 16.4653 13.4048 16.7185 12.9054 16.915C12.4059 17.1117 11.8757 17.2656 11.3147 17.3767ZM15.576 14.343C15.5013 14.2682 15.4588 14.1801 15.4487 14.0786C15.4386 13.9771 15.4623 13.8804 15.5199 13.7886C15.7859 13.4082 16.0071 12.9995 16.1835 12.5625C16.3597 12.1256 16.4949 11.6678 16.5889 11.1892C16.6124 11.0909 16.6674 11.007 16.7539 10.9375C16.8404 10.8681 16.9329 10.8334 17.0312 10.8334C17.1701 10.8334 17.2766 10.8798 17.3508 10.9727C17.4251 11.0657 17.4489 11.173 17.4222 11.2948C17.3325 11.8269 17.1832 12.3427 16.9743 12.8421C16.7654 13.3416 16.5007 13.8248 16.1802 14.2917C16.1054 14.3932 16.0106 14.4517 15.8958 14.4671C15.7809 14.4827 15.6743 14.4413 15.576 14.343ZM17.0104 9.1667C16.912 9.1667 16.8231 9.13198 16.7435 9.06254C16.6639 8.99309 16.6124 8.9092 16.5889 8.81087C16.5056 8.32156 16.3731 7.86031 16.1914 7.42712C16.0097 6.99393 15.7913 6.58872 15.536 6.2115C15.4784 6.11969 15.4519 6.02302 15.4566 5.92149C15.4615 5.81997 15.5013 5.73184 15.576 5.65712C15.6743 5.55879 15.7836 5.51927 15.9037 5.53858C16.024 5.55774 16.1215 5.61809 16.1962 5.71962C16.5381 6.21851 16.801 6.69261 16.9847 7.14191C17.1685 7.59108 17.3159 8.11219 17.427 8.70525C17.4505 8.82705 17.4216 8.93441 17.3404 9.02733C17.2593 9.12025 17.1493 9.1667 17.0104 9.1667ZM8.73953 17.388C6.96495 17.0503 5.49245 16.1902 4.32203 14.8077C3.15161 13.4252 2.56641 11.8227 2.56641 10C2.56641 8.16351 3.15078 6.5524 4.31953 5.1667C5.48842 3.78101 6.96016 2.92788 8.73474 2.60733C8.85654 2.58386 8.96307 2.60927 9.05432 2.68358C9.14571 2.75775 9.19141 2.86268 9.19141 2.99837C9.19141 3.0967 9.15752 3.18837 9.08974 3.27337C9.02182 3.35823 8.9387 3.4124 8.84036 3.43587C7.26884 3.73295 5.96918 4.49636 4.94141 5.72608C3.91363 6.95566 3.39974 8.38032 3.39974 10C3.39974 11.6091 3.91363 13.0233 4.94141 14.2427C5.96918 15.4623 7.26884 16.2346 8.84036 16.5594C8.9387 16.5829 9.02182 16.6379 9.08974 16.7244C9.15752 16.8109 9.19141 16.9034 9.19141 17.0017C9.19141 17.1374 9.14654 17.2416 9.05682 17.3142C8.9671 17.3868 8.86134 17.4114 8.73953 17.388ZM13.8549 4.54649C13.4393 4.26663 13.014 4.0324 12.5793 3.84379C12.1445 3.65518 11.7 3.5192 11.246 3.43587C11.1477 3.4124 11.0638 3.35823 10.9943 3.27337C10.9249 3.18837 10.8902 3.0967 10.8902 2.99837C10.8902 2.86268 10.9358 2.75775 11.0272 2.68358C11.1185 2.60927 11.225 2.58386 11.3468 2.60733C11.8757 2.70775 12.388 2.86163 12.8837 3.069C13.3794 3.27622 13.8586 3.53476 14.3212 3.84462C14.4259 3.91934 14.4861 4.01761 14.5016 4.13941C14.517 4.26122 14.4809 4.37129 14.3933 4.46962C14.3293 4.54434 14.2473 4.59025 14.1474 4.60733C14.0474 4.62441 13.9499 4.60413 13.8549 4.54649ZM10.0295 13.0738C9.93981 13.0738 9.85356 13.0591 9.77078 13.0296C9.688 13.0003 9.61724 12.9616 9.55849 12.9136C8.81266 12.2265 8.25599 11.5871 7.88849 10.9952C7.52099 10.4033 7.33724 9.85365 7.33724 9.34629C7.33724 8.55559 7.59446 7.89795 8.10891 7.37337C8.62335 6.84879 9.26356 6.5865 10.0295 6.5865C10.7956 6.5865 11.4359 6.84879 11.9502 7.37337C12.4646 7.89795 12.7218 8.55559 12.7218 9.34629C12.7218 9.85365 12.5381 10.4033 12.1706 10.9952C11.8031 11.5871 11.2465 12.2265 10.5008 12.9136C10.4313 12.9723 10.3605 13.0137 10.2883 13.0377C10.2162 13.0618 10.1299 13.0738 10.0295 13.0738ZM10.0295 9.984C10.2368 9.984 10.4085 9.91587 10.5447 9.77962C10.681 9.64351 10.7491 9.47177 10.7491 9.26441C10.7491 9.05719 10.681 8.88545 10.5447 8.7492C10.4085 8.61295 10.2368 8.54483 10.0295 8.54483C9.82231 8.54483 9.65057 8.61295 9.51432 8.7492C9.37807 8.88545 9.30995 9.05719 9.30995 9.26441C9.30995 9.47177 9.37807 9.64351 9.51432 9.77962C9.65057 9.91587 9.82231 9.984 10.0295 9.984Z" fill="#161C24"/>
</g>
</g>
</svg>
