<svg width="20" height="20" viewBox="0 0 20 20" fill="none" xmlns="http://www.w3.org/2000/svg">
<g id="&#236;&#132;&#188;&#236;&#132;&#156;/&#235;&#185;&#132;&#236;&#131;&#129;">
<mask id="mask0_2020_5000" style="mask-type:alpha" maskUnits="userSpaceOnUse" x="0" y="0" width="20" height="20">
<rect id="Bounding box" width="20" height="20" fill="#D9D9D9"/>
</mask>
<g mask="url(#mask0_2020_5000)">
<path id="e911_emergency" d="M5.07956 16.25C4.90247 16.25 4.754 16.1901 4.63414 16.0702C4.51442 15.9503 4.45456 15.8019 4.45456 15.6248C4.45456 15.4476 4.51442 15.2992 4.63414 15.1796C4.754 15.0598 4.90247 15 5.07956 15H5.73164L7.33747 9.61707C7.43261 9.28791 7.61532 9.02638 7.8856 8.83249C8.15588 8.6386 8.45449 8.54166 8.78143 8.54166H11.2173C11.5442 8.54166 11.8428 8.6386 12.1131 8.83249C12.3834 9.02638 12.5661 9.28791 12.6612 9.61707L14.2671 15H14.9191C15.0962 15 15.2447 15.0599 15.3646 15.1798C15.4843 15.2996 15.5441 15.4481 15.5441 15.6252C15.5441 15.8024 15.4843 15.9508 15.3646 16.0704C15.2447 16.1901 15.0962 16.25 14.9191 16.25H5.07956ZM9.37435 5.99353V3.49353C9.37435 3.31645 9.43428 3.16804 9.55414 3.04832C9.674 2.92846 9.82248 2.86853 9.99956 2.86853C10.1768 2.86853 10.3252 2.92846 10.4448 3.04832C10.5645 3.16804 10.6243 3.31645 10.6243 3.49353V5.99353C10.6243 6.17061 10.5644 6.31909 10.4446 6.43895C10.3247 6.55867 10.1762 6.61853 9.99914 6.61853C9.82192 6.61853 9.67352 6.55867 9.55393 6.43895C9.43421 6.31909 9.37435 6.17061 9.37435 5.99353ZM13.6852 7.26291L15.4641 5.49207C15.5796 5.37666 15.7224 5.31811 15.8927 5.31645C16.0631 5.31492 16.2107 5.37659 16.3356 5.50145C16.45 5.61589 16.5073 5.75909 16.5073 5.93103C16.5073 6.10311 16.4496 6.24679 16.3344 6.36207L14.5635 8.15374C14.4395 8.27777 14.2944 8.3411 14.1283 8.34374C13.9622 8.34638 13.8145 8.28304 13.6852 8.15374C13.556 8.02457 13.4914 7.8761 13.4914 7.70832C13.4914 7.54054 13.556 7.39207 13.6852 7.26291ZM15.8327 11.2019H18.3327C18.5098 11.2019 18.6582 11.2618 18.7779 11.3817C18.8978 11.5015 18.9577 11.6501 18.9577 11.8273C18.9577 12.0044 18.8978 12.1528 18.7779 12.2725C18.6582 12.3921 18.5098 12.4519 18.3327 12.4519H15.8327C15.6556 12.4519 15.5072 12.3919 15.3875 12.2721C15.2676 12.1522 15.2077 12.0037 15.2077 11.8267C15.2077 11.6494 15.2676 11.501 15.3875 11.3814C15.5072 11.2617 15.6556 11.2019 15.8327 11.2019ZM5.43518 8.14103L3.66435 6.36207C3.54907 6.24679 3.4906 6.10395 3.48893 5.93353C3.4874 5.76311 3.54907 5.61547 3.67393 5.49061C3.78838 5.37617 3.93157 5.31895 4.10352 5.31895C4.27546 5.31895 4.41914 5.37666 4.53456 5.49207L6.32622 7.26291C6.45011 7.38679 6.51345 7.53179 6.51622 7.69791C6.51886 7.86402 6.45553 8.01173 6.32622 8.14103C6.19692 8.27034 6.04845 8.33499 5.88081 8.33499C5.71303 8.33499 5.56449 8.27034 5.43518 8.14103ZM1.66602 12.4519C1.48893 12.4519 1.34053 12.3919 1.22081 12.2721C1.10095 12.1522 1.04102 12.0037 1.04102 11.8267C1.04102 11.6494 1.10095 11.501 1.22081 11.3814C1.34053 11.2617 1.48893 11.2019 1.66602 11.2019H4.16602C4.3431 11.2019 4.4915 11.2618 4.61122 11.3817C4.73109 11.5015 4.79102 11.6501 4.79102 11.8273C4.79102 12.0044 4.73109 12.1528 4.61122 12.2725C4.4915 12.3921 4.3431 12.4519 4.16602 12.4519H1.66602Z" fill="#161C24"/>
</g>
</g>
</svg>
