<svg width="16" height="16" viewBox="0 0 16 16" fill="none" xmlns="http://www.w3.org/2000/svg">
<path d="M8.77221 0C9.30238 0 9.81086 0.210507 10.1859 0.585255L14.2139 4.61022C14.5893 4.98533 14.8002 5.49427 14.8002 6.02496V14.1333C14.8002 15.1643 13.9477 16 12.8962 16H3.1042C2.05265 16 1.2002 15.1643 1.2002 14.1333V1.86667C1.2002 0.835735 2.05265 0 3.1042 0H8.77221Z" fill="#FFAB00"/>
<g filter="url(#filter0_d_7377_8061)">
<path d="M13.5552 4.34394C13.8682 4.65951 13.6447 5.19604 13.2002 5.19604H11.6004C10.5695 5.19604 9.63944 4.28926 9.63944 3.28407V1.61016C9.63944 1.16372 10.1801 0.941087 10.4944 1.25805L13.5552 4.34394Z" fill="white" fill-opacity="0.24" shape-rendering="crispEdges"/>
</g>
<path fill-rule="evenodd" clip-rule="evenodd" d="M4 6.79614H9.6V7.49614H4V6.79614ZM4 8.19614H9.6V8.89614H4V8.19614ZM4 9.59614H9.6V10.2961H4V9.59614ZM4 10.9961H6.8V11.6961H4V10.9961Z" fill="white"/>
<defs>
<filter id="filter0_d_7377_8061" x="7.63965" y="1.10913" width="8.06152" height="8.08691" filterUnits="userSpaceOnUse" color-interpolation-filters="sRGB">
<feFlood flood-opacity="0" result="BackgroundImageFix"/>
<feColorMatrix in="SourceAlpha" type="matrix" values="0 0 0 0 0 0 0 0 0 0 0 0 0 0 0 0 0 0 127 0" result="hardAlpha"/>
<feOffset dy="2"/>
<feGaussianBlur stdDeviation="1"/>
<feComposite in2="hardAlpha" operator="out"/>
<feColorMatrix type="matrix" values="0 0 0 0 0 0 0 0 0 0 0 0 0 0 0 0 0 0 0.04 0"/>
<feBlend mode="normal" in2="BackgroundImageFix" result="effect1_dropShadow_7377_8061"/>
<feBlend mode="normal" in="SourceGraphic" in2="effect1_dropShadow_7377_8061" result="shape"/>
</filter>
</defs>
</svg>
