<svg width="20" height="20" viewBox="0 0 20 20" fill="none" xmlns="http://www.w3.org/2000/svg">
<g id="&#236;&#132;&#188;&#236;&#132;&#156;/&#236;&#152;&#168;&#236;&#138;&#181;&#235;&#143;&#132;">
<mask id="mask0_2020_17862" style="mask-type:alpha" maskUnits="userSpaceOnUse" x="0" y="0" width="20" height="20">
<rect id="Bounding box" width="20" height="20" fill="#D9D9D9"/>
</mask>
<g mask="url(#mask0_2020_17862)">
<g id="dew_point">
<path d="M13.023 7.92515C12.7293 7.92515 12.4783 7.821 12.27 7.61271C12.0617 7.40443 11.9576 7.15344 11.9576 6.85974C11.9576 6.66708 11.9975 6.48028 12.0774 6.29933C12.1573 6.11839 12.2539 5.95041 12.3672 5.7954C12.4807 5.64038 12.5979 5.49557 12.7188 5.36098C12.8395 5.22638 12.9409 5.11132 13.023 5.01579C13.105 5.11132 13.2064 5.22638 13.3271 5.36098C13.4481 5.49557 13.5653 5.64038 13.6787 5.7954C13.792 5.95041 13.8886 6.11839 13.9685 6.29933C14.0484 6.48028 14.0884 6.66708 14.0884 6.85974C14.0884 7.15344 13.9842 7.40443 13.7759 7.61271C13.5677 7.821 13.3167 7.92515 13.023 7.92515ZM17.2846 4.72892C16.9909 4.72892 16.7399 4.62478 16.5316 4.41649C16.3233 4.20821 16.2192 3.95721 16.2192 3.66352C16.2192 3.47086 16.2591 3.28406 16.339 3.10311C16.419 2.92217 16.5155 2.75419 16.6288 2.59918C16.7423 2.44416 16.8595 2.29935 16.9804 2.16476C17.1012 2.03016 17.2026 1.9151 17.2846 1.81956C17.3666 1.9151 17.468 2.03016 17.5888 2.16476C17.7097 2.29935 17.8269 2.44416 17.9404 2.59918C18.0536 2.75419 18.1502 2.92217 18.2301 3.10311C18.31 3.28406 18.35 3.47086 18.35 3.66352C18.35 3.95721 18.2459 4.20821 18.0376 4.41649C17.8293 4.62478 17.5783 4.72892 17.2846 4.72892ZM17.2846 11.1214C16.9909 11.1214 16.7399 11.0172 16.5316 10.8089C16.3233 10.6006 16.2192 10.3497 16.2192 10.056C16.2192 9.8633 16.2591 9.6765 16.339 9.49555C16.419 9.31461 16.5155 9.14663 16.6288 8.99162C16.7423 8.8366 16.8595 8.69179 16.9804 8.5572C17.1012 8.4226 17.2026 8.30754 17.2846 8.21201C17.3666 8.30754 17.468 8.4226 17.5888 8.5572C17.7097 8.69179 17.8269 8.8366 17.9404 8.99162C18.0536 9.14663 18.1502 9.31461 18.2301 9.49555C18.31 9.6765 18.35 9.8633 18.35 10.056C18.35 10.3497 18.2459 10.6006 18.0376 10.8089C17.8293 11.0172 17.5783 11.1214 17.2846 11.1214ZM6.26163 18.0465C5.07476 18.0465 4.06778 17.633 3.24067 16.8058C2.41356 15.9789 2 14.9719 2 13.7849C2 13.0418 2.18645 12.3461 2.55934 11.698C2.93223 11.0499 3.45606 10.5162 4.13081 10.097V3.13081C4.13081 2.52975 4.33573 2.02439 4.74555 1.61474C5.15538 1.20491 5.66074 1 6.26163 1C6.86269 1 7.36814 1.20491 7.77797 1.61474C8.18762 2.02439 8.39244 2.52975 8.39244 3.13081V10.097C9.0672 10.5162 9.59102 11.0499 9.96392 11.698C10.3368 12.3461 10.5233 13.0418 10.5233 13.7849C10.5233 14.9719 10.1098 15.9789 9.28286 16.8058C8.45574 17.633 7.44867 18.0465 6.26163 18.0465ZM3.06541 13.7849H9.45785C9.45785 13.2563 9.31615 12.7461 9.03275 12.2544C8.74935 11.7627 8.34201 11.3249 7.81073 10.941L7.32703 10.5887V3.13081C7.32703 2.82895 7.22493 2.57591 7.02073 2.37171C6.81653 2.16751 6.56349 2.06541 6.26163 2.06541C5.95976 2.06541 5.70673 2.16751 5.50253 2.37171C5.29832 2.57591 5.19622 2.82895 5.19622 3.13081V10.5887L4.71279 10.941C4.18151 11.3249 3.77417 11.7627 3.49077 12.2544C3.20719 12.7461 3.06541 13.2563 3.06541 13.7849Z" fill="#161C24"/>
<path d="M6.09828 4.19622H8.22909V5.26163H6.09828V4.19622Z" fill="#161C24"/>
<path d="M6.09828 8.45785H8.22909V9.52326H6.09828V8.45785Z" fill="#161C24"/>
</g>
</g>
</g>
</svg>
