<svg width="20" height="20" viewBox="0 0 20 20" fill="none" xmlns="http://www.w3.org/2000/svg">
<g id="&#236;&#132;&#188;&#236;&#132;&#156;/&#236;&#182;&#169;&#234;&#178;&#169;">
<path id="Vector" d="M5.03642 2.6922L6.94115 7.72088C6.97116 7.80014 6.9253 7.88782 6.84318 7.90823L4.01036 8.61173C3.87711 8.6448 3.86472 8.82967 3.99235 8.88026L6.23257 9.76897C6.32717 9.80651 6.35222 9.92896 6.27997 10.0007L3.37636 12.885C3.27504 12.9857 3.36985 13.1562 3.50862 13.1228L7.70366 12.1153C7.78071 12.0968 7.85786 12.1455 7.87451 12.2231L9.15962 18.2216C9.18874 18.3575 9.3755 18.3741 9.42816 18.2456L11.4433 13.3256C11.4784 13.2398 11.5852 13.2106 11.659 13.2666L13.8279 14.9108C13.9377 14.9941 14.0893 14.8866 14.0475 14.7553L13.2587 12.2754C13.2316 12.1899 13.2896 12.1011 13.3785 12.0919L18.2073 11.588C18.3418 11.574 18.3815 11.3969 18.2659 11.3266L14.1208 8.80734C14.0447 8.76109 14.0299 8.65662 14.09 8.59093L16.8711 5.55565C16.9654 5.45272 16.8694 5.28975 16.7338 5.32275L12.236 6.41788C12.1523 6.43824 12.0702 6.37945 12.0622 6.29357L11.8274 3.75394C11.8157 3.62713 11.6557 3.57932 11.5765 3.67899L9.90419 5.78473C9.857 5.84418 9.77127 5.85561 9.7102 5.81062L5.25191 2.52819C5.13862 2.44478 4.98654 2.56052 5.03642 2.6922ZM7.87406 10.7018L8.5518 10.0161C8.6162 9.95095 8.6026 9.84263 8.52415 9.79548L7.59586 9.23761C7.48338 9.17 7.51583 8.99864 7.6453 8.97705L8.80252 8.78382C8.88633 8.76985 8.93888 8.68534 8.91449 8.60382L8.41064 6.92157C8.37108 6.78959 8.52426 6.68475 8.63263 6.76959L9.95837 7.80698C10.0269 7.86069 10.1272 7.83994 10.1691 7.76345L10.8445 6.52625C10.9122 6.40218 11.0998 6.44362 11.1091 6.58471L11.2091 8.09552C11.2141 8.17151 11.2784 8.22985 11.3544 8.22742L12.1869 8.2009C12.3014 8.19723 12.3723 8.32454 12.309 8.4202L11.8076 9.17825C11.7583 9.25287 11.7897 9.35407 11.8727 9.38742L14.5326 10.4574C14.6527 10.5058 14.6104 10.6857 14.4813 10.675L11.9352 10.466C11.853 10.4592 11.7825 10.5243 11.7825 10.6068V11.4468C11.7825 11.5667 11.6429 11.6321 11.551 11.5553L10.9507 11.0531C10.8751 10.9899 10.7599 11.0216 10.7272 11.1145L9.99585 13.1863C9.94539 13.3293 9.73803 13.3113 9.7128 13.1618L9.32285 10.8485C9.30981 10.7711 9.23615 10.7191 9.15894 10.733L7.99913 10.9404C7.86351 10.9646 7.77715 10.7999 7.87406 10.7018Z" fill="#161C24"/>
</g>
</svg>
