<svg width="20" height="20" viewBox="0 0 20 20" fill="none" xmlns="http://www.w3.org/2000/svg">
<g id="start adornment">
<path id="primary-shape" d="M10.0004 12.9176C9.8057 12.918 9.61701 12.8502 9.46708 12.726L4.46708 8.55931C4.1127 8.26476 4.06419 7.7387 4.35874 7.38431C4.6533 7.02993 5.17936 6.98143 5.53374 7.27598L10.0004 11.0093L14.4671 7.40931C14.6392 7.26951 14.86 7.20409 15.0806 7.22755C15.3011 7.25101 15.5032 7.36141 15.6421 7.53431C15.7964 7.70753 15.8715 7.93721 15.8493 8.16811C15.8272 8.39901 15.7098 8.61024 15.5254 8.75098L10.5254 12.776C10.3712 12.8806 10.1863 12.9305 10.0004 12.9176Z" fill="#637381"/>
</g>
</svg>
