<svg width="16" height="16" viewBox="0 0 16 16" fill="none" xmlns="http://www.w3.org/2000/svg">
<g id="icons/solid/ic-checkbox-add">
<path id="Subtract" fill-rule="evenodd" clip-rule="evenodd" d="M4.66634 1.33337C2.82539 1.33337 1.33301 2.82576 1.33301 4.66671V11.3334C1.33301 13.1743 2.82539 14.6667 4.66634 14.6667H11.333C13.174 14.6667 14.6663 13.1743 14.6663 11.3334V4.66671C14.6663 2.82576 13.174 1.33337 11.333 1.33337H4.66634ZM8.66634 8.66671H9.99967C10.3679 8.66671 10.6663 8.36823 10.6663 8.00004C10.6663 7.63185 10.3679 7.33337 9.99967 7.33337H8.66634V6.00004C8.66634 5.63185 8.36786 5.33337 7.99967 5.33337C7.63148 5.33337 7.33301 5.63185 7.33301 6.00004V7.33337H5.99967C5.63149 7.33337 5.33301 7.63185 5.33301 8.00004C5.33301 8.36823 5.63149 8.66671 5.99967 8.66671H7.33301V10C7.33301 10.3682 7.63148 10.6667 7.99967 10.6667C8.36786 10.6667 8.66634 10.3682 8.66634 10V8.66671Z" fill="#FFDD00"/>
</g>
</svg>
