<svg width="16" height="16" viewBox="0 0 16 16" fill="none" xmlns="http://www.w3.org/2000/svg">
<g id="icons/solid/ic-checkbox-indeterminate">
<path id="primary-shape" fill-rule="evenodd" clip-rule="evenodd" d="M1.33301 4.66665C1.33301 2.8257 2.82539 1.33331 4.66634 1.33331H11.333C13.174 1.33331 14.6663 2.8257 14.6663 4.66665V11.3333C14.6663 13.1743 13.174 14.6666 11.333 14.6666H4.66634C2.82539 14.6666 1.33301 13.1743 1.33301 11.3333V4.66665ZM9.99967 8.66665H5.99967C5.63148 8.66665 5.33301 8.36817 5.33301 7.99998C5.33301 7.63179 5.63148 7.33331 5.99967 7.33331H9.99967C10.3679 7.33331 10.6663 7.63179 10.6663 7.99998C10.6663 8.36817 10.3679 8.66665 9.99967 8.66665Z" fill="#22C55E"/>
</g>
</svg>
