<svg width="50" height="51" viewBox="0 0 50 51" fill="none" xmlns="http://www.w3.org/2000/svg">
<path d="M17.5 8C16.1193 8 15 9.11929 15 10.5C15 11.8807 16.1193 13 17.5 13H32.5C33.8807 13 35 11.8807 35 10.5C35 9.11929 33.8807 8 32.5 8H17.5Z" fill="#0090F0"/>
<path d="M10 18C10 16.6193 11.1193 15.5 12.5 15.5H37.5C38.8807 15.5 40 16.6193 40 18C40 19.3807 38.8807 20.5 37.5 20.5H12.5C11.1193 20.5 10 19.3807 10 18Z" fill="#0090F0"/>
<path d="M5 28C5 25.2386 7.23858 23 10 23H40C42.7614 23 45 25.2386 45 28V38C45 40.7614 42.7614 43 40 43H10C7.23858 43 5 40.7614 5 38V28Z" fill="#0090F0"/>
</svg>
